<svg width="100" height="100" viewBox="0 0 100 100" fill="none" xmlns="http://www.w3.org/2000/svg">
<path fill-rule="evenodd" clip-rule="evenodd" d="M84 50C84 68.7777 68.7777 84 50 84C34.7025 84 21.7647 73.8973 17.4944 60H11.2602C15.7006 77.2523 31.3616 90 50 90C72.0914 90 90 72.0914 90 50C90 27.9086 72.0914 10 50 10C31.3616 10 15.7006 22.7477 11.2602 40H17.4944C21.7647 26.1027 34.7025 16 50 16C68.7777 16 84 31.2223 84 50ZM21.7071 40C25.8254 28.3481 36.9378 20 50 20C66.5686 20 80 33.4315 80 50C80 66.5685 66.5686 80 50 80C36.9378 80 25.8254 71.6519 21.7071 60H28.1762C31.9682 68.2621 40.314 74 50 74C63.2548 74 74 63.2548 74 50C74 36.7452 63.2548 26 50 26C40.314 26 31.9682 31.7379 28.1762 40H21.7071Z" fill="black"/>
<path d="M11 43H61C64.3137 43 67 45.6863 67 49H17C13.6863 49 11 46.3137 11 43Z" fill="black"/>
<path d="M11 51H61C64.3137 51 67 53.6863 67 57H17C13.6863 57 11 54.3137 11 51Z" fill="black"/>
</svg>
